<?xml version="1.0" encoding="UTF-8"?>
<svg id="Layer_1" data-name="Layer 1" xmlns="http://www.w3.org/2000/svg" viewBox="0 0 377.71 68.12">
  <defs>
    <style>
      .cls-1 {
        fill: #fff;
        stroke-width: 0px;
      }
    </style>
  </defs>
  <g>
    <path class="cls-1" d="M163.55,16.94v34.1h-4.14V16.94h4.14Z"/>
    <path class="cls-1" d="M222.01,16.94h4.63l-15.83,34.1-15.83-34.1h4.63l11.21,24.7,11.21-24.7Z"/>
    <path class="cls-1" d="M229.39,27.05c.86-2.13,2.07-3.98,3.63-5.55,1.56-1.58,3.39-2.81,5.5-3.7,2.11-.89,4.4-1.34,6.87-1.34s4.8.45,6.89,1.34c2.09.89,3.92,2.13,5.48,3.7,1.56,1.58,2.77,3.43,3.63,5.55.86,2.13,1.29,4.44,1.29,6.94s-.43,4.77-1.29,6.92c-.86,2.14-2.07,4-3.63,5.58-1.56,1.58-3.39,2.81-5.48,3.7-2.09.89-4.39,1.34-6.89,1.34s-4.76-.45-6.87-1.34c-2.11-.89-3.95-2.13-5.5-3.7-1.56-1.58-2.77-3.43-3.63-5.58-.86-2.14-1.29-4.45-1.29-6.92s.43-4.81,1.29-6.94ZM234.17,40.87c1.12,2.01,2.66,3.61,4.6,4.77,1.95,1.17,4.16,1.75,6.63,1.75s4.72-.58,6.65-1.75c1.93-1.17,3.46-2.76,4.58-4.77,1.12-2.01,1.68-4.3,1.68-6.87s-.56-4.86-1.68-6.87c-1.12-2.01-2.65-3.61-4.58-4.77-1.93-1.17-4.15-1.75-6.65-1.75s-4.68.58-6.63,1.75c-1.95,1.17-3.48,2.76-4.6,4.77-1.12,2.01-1.68,4.3-1.68,6.87s.56,4.86,1.68,6.87Z"/>
    <path class="cls-1" d="M290.26,16.94l-11.35,19.39v14.71h-4.14v-14.66l-11.35-19.44h4.63l8.77,15.78,8.82-15.78h4.63Z"/>
    <path class="cls-1" d="M351.65,16.94v34.1l-25.82-23.68v23.68h-4.14V16.94l25.82,23.68v-23.68h4.14Z"/>
    <path class="cls-1" d="M356.03,16.94h21.68v3.9h-8.77v30.21h-4.14v-30.21h-8.77v-3.9Z"/>
    <path class="cls-1" d="M312.92,51.05h4.63l-15.83-34.1-15.83,34.1h4.63l4.64-10.23h13.13l4.64,10.23ZM296.92,36.92l4.8-10.57,4.8,10.57h-9.59Z"/>
    <path class="cls-1" d="M150.64,51.05h4.63l-15.83-34.1-15.83,34.1h4.63l4.64-10.23h13.13l4.64,10.23ZM134.64,36.92l4.8-10.57,4.8,10.57h-9.59Z"/>
    <path class="cls-1" d="M184.07,37.01c.86-.2,1.68-.48,2.45-.85,1.74-.83,3.12-2.01,4.14-3.56,1.02-1.54,1.53-3.35,1.53-5.43s-.51-3.93-1.53-5.46c-1.02-1.53-2.4-2.7-4.14-3.53-1.74-.83-3.71-1.24-5.92-1.24h-9.26v3.65h9.26c1.46,0,2.75.26,3.87.78,1.12.52,2,1.27,2.63,2.24.63.97.95,2.16.95,3.56s-.32,2.58-.95,3.56c-.63.97-1.51,1.72-2.63,2.24-1.12.52-2.41.78-3.87.78h-9.26v3.65h5.18s3.11,0,3.11,0l9.49,13.64h5.12l-10.17-14.03Z"/>
  </g>
  <g>
    <path class="cls-1" d="M42.36,0h15.15s-16.37,64.26-16.37,64.26c-.59,2.3-2.26,3.86-4.15,3.86H0S39.14,2.05,39.14,2.05C39.9.76,41.09,0,42.36,0Z"/>
    <path class="cls-1" d="M72.72,0h-15.15l16.37,64.26c.59,2.3,2.26,3.86,4.15,3.86h36.99L75.94,2.05c-.76-1.29-1.96-2.05-3.22-2.05Z"/>
  </g>
</svg>